<?xml version="1.0" encoding="utf-8"?>
<!-- Generator: Adobe Illustrator 26.1.0, SVG Export Plug-In . SVG Version: 6.00 Build 0)  -->
<svg version="1.1" id="SK_Bug" xmlns="http://www.w3.org/2000/svg" xmlns:xlink="http://www.w3.org/1999/xlink" x="0px" y="0px"
	 viewBox="0 0 1566 304.1" style="enable-background:new 0 0 1566 304.1;" xml:space="preserve">
<style type="text/css">
	.st0{fill:#FFFFFF;}
</style>
<path class="st0" d="M22,233.5c3.1,10.2,11.8,16.1,27.4,16.1c16.5,0,22.4-5.8,22.4-13.4c0-7.2-4.3-12.1-26.2-14.7
	c-30.2-3.8-35.9-14.3-35.9-25c0-11.1,8.9-25.3,36.4-25.3c29.8,0,38.2,15.4,39.1,25.7H68.9c-1.3-5.2-4.8-13.6-23.7-13.6
	c-15.9,0-19.3,6.9-19.3,11.8c0,6.4,4,10.2,23.7,12.9c32.3,4.3,38.4,14.3,38.4,27c0,15.5-11.8,27-39.6,27
	c-25.1,0-39.7-10.6-42.7-28.4L22,233.5z"/>
<path class="st0" d="M96.9,173.5H114v-27.7h16.2v27.7h22.4v12.8h-22.4v47.1c0,9.9,2.5,14.2,11.9,14.2c2.8,0.1,5.7-0.2,8.5-0.7v11.9
	c-3.9,1.4-8.4,1.6-13.3,1.6c-17.8,0-23.2-8-23.2-24.9v-49.2H96.9V173.5z"/>
<path class="st0" d="M247.9,234.4c0,8.4-0.1,16.7,0.1,25.1h-15.6c-0.4-2.4-0.6-8.5-0.6-14.5c-4.3,9.8-12,16.9-30.9,16.9
	c-18.2,0-32.3-10-32.3-35v-53.4h16.2v50.4c0,13,5.1,24.3,20.6,24.3c18.5,0,26.4-10.8,26.4-35.8v-38.9H248L247.9,234.4L247.9,234.4z"
	/>
<path class="st0" d="M358.5,131.7v102.8c0,8.3,0,16.7,0.2,25H343c-0.5-3.6-0.6-8.8-0.7-13.1c-4.4,7.3-11.7,15.5-31.6,15.5
	c-24.9,0-41.7-18.6-41.7-44.7c0-28.3,21.3-46.1,43.7-46.1c20.2,0,27.2,9.1,29.6,13.2v-52.6L358.5,131.7L358.5,131.7z M285.7,216.9
	c0,15.9,9.6,31.5,28.4,31.5c20.5,0,28.9-13.2,28.9-32.2s-6.7-31.6-28.3-31.6C295.1,184.6,285.7,200.6,285.7,216.9z"/>
<path class="st0" d="M386.6,131.7h16.2v19.4h-16.2V131.7z M386.6,173.5h16.2v86h-16.2V173.5z"/>
<path class="st0" d="M515.6,216.5c0,23.9-15.5,45.4-46.4,45.4c-29.1,0-45.4-21.5-45.4-45.3c0-24.7,17.2-45.5,46.2-45.5
	C499.8,171.1,515.6,193.8,515.6,216.5z M440.4,216.6c0,16.3,10.4,32.1,29.4,32.1c19.7,0,29.1-14.7,29.1-31.9s-10.4-32.4-29.5-32.4
	C449.9,184.4,440.4,199.4,440.4,216.6z"/>
<path class="st0" d="M553.3,214.7c9.1-8.2,34.1-29.5,47.4-41.1h20.5L581.4,207l44,52.6H605l-35.5-43.4L553.3,229v30.5h-16.2V131.7
	h16.2V214.7z"/>
<path class="st0" d="M714.3,238.2c0,8.4,0.5,19.3,0.8,21.3h-15.4c-0.6-4.2-1-8.4-1-12.6c-4.5,8.9-14.3,15-32.5,15
	c-24.3,0-33.2-14.7-33.2-27.6c0-22,20-28.1,44.6-28.1h21v-4.6c0-9.4-4-18.2-22.4-18.2c-16.5,0-20.4,7.3-22.1,15.1h-16.2
	c1-11.4,8.7-27.4,38.2-27.4c31.3,0,38.2,15.3,38.2,29.5L714.3,238.2L714.3,238.2z M698.5,217.6c-2.7-0.1-8.5-0.1-20.6-0.1
	c-19.7,0-29,4.4-29,15.9c0,8.6,6.3,15.8,20.6,15.8c22.8,0,29-13.4,29-27.8V217.6z"/>
<path class="st0" d="M742.7,195.2c0-7.2,0-15.3-0.2-21.7h15.7c0.3,3,0.6,10.1,0.6,15.9c3.7-8.3,12.7-18.3,31.2-18.3
	c20.2,0,33.3,12.4,33.3,36v52.4H807v-49.4c0-14.1-5.4-25.4-21.4-25.4c-17.9,0-26.7,13.6-26.7,33.6v41.2h-16.2L742.7,195.2
	L742.7,195.2z"/>
<path class="st0" d="M930.6,234.4c0,8.4,0,16.7,0.1,25.1h-15.6c-0.3-2.4-0.6-8.5-0.6-14.5c-4.3,9.8-12,16.9-30.9,16.9
	c-18.2,0-32.3-10-32.3-35v-53.4h16.2v50.4c0,13,5.1,24.3,20.6,24.3c18.5,0,26.4-10.8,26.4-35.8v-38.9h16.2L930.6,234.4z"/>
<path class="st0" d="M958.1,195.2c0-7.2,0-15.3-0.2-21.7h15.7c0.3,3,0.6,10.1,0.6,15.9c3.7-8.3,12.7-18.3,31.2-18.3
	c20.2,0,33.3,12.4,33.3,36v52.4h-16.3v-49.4c0-14.1-5.4-25.4-21.4-25.4c-17.9,0-26.7,13.6-26.7,33.6v41.2h-16.2L958.1,195.2
	L958.1,195.2z"/>
<path class="st0" d="M1146,234.4c0,8.4-0.1,16.7,0.1,25.1h-15.6c-0.3-2.4-0.6-8.5-0.6-14.5c-4.3,9.8-12,16.9-30.8,16.9
	c-18.2,0-32.3-10-32.3-35v-53.4h16.2v50.4c0,13,5.1,24.3,20.6,24.3c18.5,0,26.4-10.8,26.4-35.8v-38.9h16.2v60.9H1146z"/>
<path class="st0" d="M1169.6,259.5v-27.9h17.9v27.9H1169.6z"/>
<path class="st0" d="M1295,232.6c-4.2,15.6-17.7,29.3-42.2,29.3c-30.6,0-45.3-20.6-45.3-45.1s16.7-45.7,45.5-45.7
	s39.8,18.4,41.7,29.9h-16.2c-3-8-9.7-16.8-25.8-16.8c-18.1,0-28.7,13.5-28.7,32.3c0,17.9,10.2,32.3,28.8,32.3
	c13.9,0,21.6-6.4,25.9-16.1L1295,232.6L1295,232.6z"/>
<path class="st0" d="M1401.2,216.5c0,23.9-15.4,45.4-46.3,45.4c-29.1,0-45.3-21.5-45.3-45.3c0-24.7,17.2-45.5,46.2-45.5
	C1385.5,171.1,1401.2,193.8,1401.2,216.5z M1326.1,216.6c0,16.3,10.4,32.1,29.3,32.1c19.7,0,29.1-14.7,29.1-31.9
	s-10.4-32.4-29.5-32.4C1335.5,184.4,1326.1,199.4,1326.1,216.6z"/>
<path class="st0" d="M1422.3,195.7c0-7.4,0-14.8-0.2-22.2h15.6c0.4,4.3,0.6,8.6,0.5,12.9c4.4-7.4,12.7-15.2,27.8-15.2
	c14.2,0,22.7,6.8,26.4,16.5c4.6-7.4,12.6-16.5,29.6-16.5s30.8,9.8,30.8,35.3v53.2h-16V207c0-10-3.2-22.4-18.6-22.4
	c-13.7,0-22.6,9.3-22.6,27.9v47.2h-16.1v-53.3c0-10.3-3.5-21.8-18.7-21.8c-16.2,0-22.5,12.7-22.5,29.1v46h-16.1L1422.3,195.7z"/>
<ellipse transform="matrix(0.9936 -0.1132 0.1132 0.9936 -1.3689 86.3073)" class="st0" cx="759.3" cy="55.2" rx="22.8" ry="14.4"/>
<ellipse class="st0" cx="795" cy="32.3" rx="17.8" ry="11.2"/>
<ellipse transform="matrix(0.9709 -0.2396 0.2396 0.9709 5.6696 194.5527)" class="st0" cx="803" cy="74" rx="27.5" ry="17.6"/>
<path class="st0" d="M845.6,67.4c0,33.6-28,60.9-62.6,60.9s-62.6-27.2-62.6-60.9s28-60.9,62.6-60.9S845.6,33.8,845.6,67.4z
	 M783.9,12.5c-29.8,0-54,22-54,49s24.2,49,54,49s54-22,54-49S813.7,12.5,783.9,12.5z"/>
</svg>
